<svg width="24" height="24" viewBox="0 0 24 24" fill="none" xmlns="http://www.w3.org/2000/svg">
<path d="M16.4999 11.25H9.30742L11.0324 9.5325C11.1737 9.39127 11.253 9.19973 11.253 9C11.253 8.80028 11.1737 8.60873 11.0324 8.4675C10.8912 8.32627 10.6996 8.24693 10.4999 8.24693C10.3002 8.24693 10.1087 8.32627 9.96742 8.4675L6.96742 11.4675C6.89914 11.5388 6.84562 11.6229 6.80992 11.715C6.73491 11.8976 6.73491 12.1024 6.80992 12.285C6.84562 12.3771 6.89914 12.4612 6.96742 12.5325L9.96742 15.5325C10.0371 15.6028 10.1201 15.6586 10.2115 15.6967C10.3029 15.7347 10.4009 15.7544 10.4999 15.7544C10.5989 15.7544 10.697 15.7347 10.7884 15.6967C10.8797 15.6586 10.9627 15.6028 11.0324 15.5325C11.1027 15.4628 11.1585 15.3798 11.1966 15.2884C11.2347 15.197 11.2543 15.099 11.2543 15C11.2543 14.901 11.2347 14.803 11.1966 14.7116C11.1585 14.6202 11.1027 14.5372 11.0324 14.4675L9.30742 12.75H16.4999C16.6988 12.75 16.8896 12.671 17.0303 12.5303C17.1709 12.3897 17.2499 12.1989 17.2499 12C17.2499 11.8011 17.1709 11.6103 17.0303 11.4697C16.8896 11.329 16.6988 11.25 16.4999 11.25Z" fill="#4B3515"/>
</svg>
